<!--version="1.0" standalone="no"--><!DOCTYPE html PUBLIC "-//W3C//DTD SVG 20010904//EN" "http://www.w3.org/TR/2001/REC-SVG-20010904/DTD/svg10.dtd"><svg version="1.0" xmlns="http://www.w3.org/2000/svg" width="1200" height="1200" viewBox="0 0 900 900" preserveAspectRatio="xMidYMid meet" zoomAndPan="magnify" contentScriptType="text/ecmascript" contentStyleType="text/css"><g transform="translate(0.000000,900.000000) scale(0.100000,-0.100000)" fill="#000000" stroke="none"><path d="M3851 7043c-14-13-19-23-11-23 7 0 19-8 26-17 12-17 14-17 26-2 7 9 19 18 26 21 8 2 3 11-15 23l-28 21-24-23z"/><path d="M2960 6832c-135-46-272-93-305-103s-145-48-250-84c-104-36-203-70-220-74-16-5-124-41-240-81-115-39-230-78-255-85-25-8-72-22-105-33l-60-20-3-48c-2-27 1-89 8-139 46-371 166-657 359-858 131-137 245-200 466-258 64-17 368-17 450 0 172 35 368 93 480 142 256 111 403 186 634 324 233 140 291 182 326 239 54 88 34 203-54 304l-29 34-265-107c-146-59-271-104-277-100-19 12-141 205-175 278-93 200-171 443-216 677-7 36-15 67-18 71-3 3-116-33-251-79zm235-19c10-32 37-135 61-229 52-205 70-254 162-445 90-186 206-339 315-411 75-51 174-101 220-112 15-3 27-10 27-15 0-6-35-29-77-52-43-23-91-52-108-64-34-25-384-203-460-234-109-44-294-110-365-130-223-62-506-67-711-13-21 5-81 34-135 63-307 168-493 502-560 1003-19 150-22 141 39 164 45 19 603 207 1127 382 96 33 234 79 305 104 72 24 133 45 137 45 4 1 14-25 23-56z"/><path d="M2460 6109c-36-16-176-66-312-111-150-50-248-88-248-95s4-13 10-13c20 0 187 52 369 114 279 96 288 100 259 123-9 7-34 1-78-18z"/><path d="M2782 5949c-205-78-544-198-682-240-85-26-99-34-83-50 11-11 17-9 238 63 141 45 625 221 708 257 34 14 48 34 30 44-5 2-99-31-211-74z"/><path d="M3025 5773c-180-74-435-169-657-244-150-51-188-67-188-81 0-10 2-18 5-18 14 0 334 111 520 181 370 138 465 178 465 195 0 7-3 15-7 17-5 3-66-20-138-50z"/><path d="M3190 5583c-160-68-371-147-625-234-126-44-231-79-232-79-2 0-3-7-3-16 0-24 44-12 449 130 89 31 361 137 426 166 11 4 46 20 78 34 33 14 56 30 52 36-10 17-35 10-145-37z"/><path d="M5884 6059c-9-16 18-30 33-17 7 6 10 14 7 19-7 13-31 11-40-2z"/><path d="M5605 5432c-6-26-14-34-36-39-37-7-37-20 0-28 22-5 30-13 36-38l7-32 15 32c11 22 26 34 47 39l31 7-32 14c-21 8-38 25-47 46l-14 32-7-33z"/><path d="M5790 4945c-282-57-511-260-606-537-13-39-24-83-24-98 0-48-9-50-234-50-201 0-213 1-262 24-63 29-93 68-148 188-62 137-70 150-119 195-73 67-79 68-562 68-428 0-430 0-480-23-63-29-100-64-133-127l-27-50-5-350-5-350-285-5c-313-6-323-8-396-72s-101-174-75-291c10-42 42-211 61-317 5-30 19-102 30-160s25-130 30-160c6-30 24-125 40-210s43-229 60-320c67-357 69-368 91-412 29-57 82-104 144-127 56-21 57-21 1590-21 1508 0 1535 0 1588 20 63 24 117 76 149 145l23 50 3 730c3 745 3 744 39 745 8 0 141-200 198-299 4-7 2-38-6-68-18-78-5-116 92-269 45-71 94-149 109-174s47-77 72-115c25-39 80-125 123-193 61-96 87-128 119-147 77-44 153-42 227 8 65 43 98 156 68 234-8 23-96 164-314 508-168 264-173 269-271 295-40 10-46 17-138 163-53 85-96 157-96 161 0 5 29 39 64 77 72 78 121 155 161 255 41 101 54 175 54 299 0 184-48 329-161 478-177 238-497 360-788 302zm325-40c84-17 206-77 298-146 321-241 384-735 134-1064-80-106-237-215-381-265-212-72-455-33-656 106-159 110-254 245-311 444-20 69-17 301 5 375 45 154 154 319 264 402 80 60 205 124 282 144 83 22 270 24 365 4zm-1827-220c79-24 106-54 179-199 36-72 76-146 90-164 31-42 89-78 139-88 22-5 42-9 47-10 4-1 95-2 202-3l195-1v-69c0-202 89-407 242-560 89-89 187-149 316-194 82-29 95-31 232-31 102 0 161 5 200 16 30 9 57 14 60 11s4-329 2-726c-4-807 1-757-77-825-61-55-96-64-220-60-95 4-118 8-167 32-73 36-140 94-171 151-48 86-52 100-152 675-19 107-46 260-60 340s-39 219-55 310-37 206-45 255c-28 152-70 221-164 262l-55 24-615-1c-339 0-743 2-899 6l-283 7 3 341c3 323 4 343 24 387 23 49 63 83 129 111 35 15 88 17 446 17 335 1 414-2 457-14zm783-915c71-36 129-124 129-195 0-11 9-67 20-125 17-93 39-211 110-615 11-60 43-243 71-405 70-407 98-482 215-589 30-27 54-52 54-55s-620-4-1377-3l-1378 2-45 27c-60 35-86 64-105 117-17 48-62 275-125 621-22 124-59 315-81 425-80 399-110 578-103 622 8 58 54 126 106 160 38 24 55 28 148 33 58 3 605 3 1215 1 1048-3 1112-4 1146-21zm1640-601c19-7 42-19 53-28 21-18 118-163 209-311 34-55 107-170 161-257 55-87 106-174 114-195 21-54 9-101-40-148-68-67-160-75-219-21-16 14-69 89-118 166s-109 169-132 205c-38 57-94 147-206 329-68 112-27 224 95 261 38 12 45 11 83-1z"/><path d="M5782 4756c-93-23-181-75-263-156-129-128-190-270-188-445 1-171 58-306 183-430 69-69 169-130 258-156 234-69 512 23 661 219 80 106 126 240 127 371 1 271-196 528-456 595-74 19-246 20-322 2zm405-71c151-77 253-192 305-343 32-94 32-280 0-363-71-181-192-300-370-367-55-21-85-25-172-25-58-1-125 5-150 12-257 72-430 295-432 556-1 146 30 240 124 367 57 77 171 158 278 196 57 20 80 22 192 19l127-3 98-49z"/><path d="M1827 4334c-4-4-7-16-7-27 0-12-11-23-30-30-16-6-30-15-30-18 0-4 14-10 30-14 23-5 30-12 30-30 0-34 18-41 26-9 5 17 19 31 43 42l36 15-31 10c-20 6-37 20-45 39-8 16-18 26-22 22z"/></g></svg>